<?xml version="1.0" encoding="utf-8"?>
<!-- Generator: Adobe Illustrator 24.0.1, SVG Export Plug-In . SVG Version: 6.00 Build 0)  -->
<svg version="1.1" id="Layer_1" xmlns="http://www.w3.org/2000/svg" xmlns:xlink="http://www.w3.org/1999/xlink" x="0px" y="0px"
	 viewBox="0 0 1920 1920" style="enable-background:new 0 0 1920 1920;" xml:space="preserve">
<style type="text/css">
	.st0{fill:#FFFFFF;stroke:#000000;stroke-width:70;stroke-miterlimit:10;}
	.st1{fill:none;stroke:#000000;stroke-width:70;stroke-miterlimit:10;}
</style>
<circle class="st0" cx="659.61" cy="1197.44" r="468.18"/>
<g>
	<g>
		<path d="M686.72,753.27c13.77-10.88,27.58-21.71,41.43-32.49c3.3-2.57,6.6-5.13,9.9-7.69c1.51-1.17,12.65-9.43,4.82-3.73
			c7.42-5.4,14.58-11.23,21.87-16.81c27.21-20.83,54.57-41.45,82.09-61.88c55.7-41.34,112.02-81.85,168.93-121.51
			c113.14-78.84,228.62-154.32,346.24-226.31c66.3-40.57,133.28-80.02,200.89-118.36c-17.56-10.07-35.11-20.15-52.67-30.22
			c4.38,103.35,9.67,206.68,16.22,309.91c3.27,51.55,7.02,103.08,12.04,154.49c5.02,51.43,12.74,102.54,17.71,153.96
			c2.46,25.44,4,51,3.48,76.56c-0.23,11.22-0.87,22.43-2.01,33.59c-0.27,2.67-0.59,5.34-0.9,8.01c-0.72,6.17,0.18-1.74,0.34-2.46
			c-0.24,1.11-0.33,2.29-0.51,3.41c-0.87,5.68-1.87,11.34-3.03,16.98c-2.3,11.22-5.19,22.32-8.76,33.2
			c-1.66,5.06-3.46,10.07-5.42,15.01c-0.42,1.06-0.86,2.11-1.28,3.17c-1.73,4.36,2.85-6.32,0.84-2.08c-1.3,2.74-2.51,5.52-3.85,8.25
			c-4.85,9.9-10.39,19.45-16.63,28.53c-1.6,2.32-3.31,4.57-4.93,6.87c-2.75,3.89,4.08-5.03,1.06-1.34c-0.77,0.93-1.5,1.89-2.27,2.82
			c-4.07,4.99-8.31,9.84-12.68,14.57c-16.31,17.69-34.15,33.94-51.61,50.48c-18.74,17.75-37.48,35.51-56.21,53.26
			c-37.8,35.81-75.6,71.63-113.4,107.44c-75.6,71.63-151.19,143.25-226.79,214.88c-9.37,8.88-18.74,17.75-28.11,26.63
			c-13.32,12.62-13.67,36.95,0,49.5c14.28,13.11,35.29,13.46,49.5,0c76.24-72.24,152.49-144.48,228.73-216.72
			c75.68-71.71,152.28-142.58,227.04-215.25c18.6-18.08,36.12-37.27,50.75-58.76c13.85-20.34,24.18-43.22,32.03-66.49
			c15.62-46.33,19.63-96.62,17.75-145.22c-2.01-52.07-10.44-103.63-16.29-155.34c-5.85-51.77-10.18-103.69-13.81-155.66
			c-7.29-104.49-12.67-209.14-17.36-313.78c-0.57-12.81-1.13-25.62-1.67-38.43c-1.12-26.43-28.89-43.7-52.67-30.22
			C1406.87,172.49,1288.21,244.5,1171.82,320c-116.74,75.73-231.21,154.97-343.2,237.56c-64.62,47.66-128.4,96.44-191.4,146.21
			c-6.56,5.18-10.25,16.82-10.25,24.75c0,8.58,3.81,18.84,10.25,24.75c6.67,6.12,15.43,10.67,24.75,10.25
			C671.84,763.08,679.03,759.35,686.72,753.27L686.72,753.27z"/>
	</g>
</g>
<g>
	<g>
		<path d="M1021.43,1448.81c-4.99,5.5-10.38,10.51-16.22,15.09c2.36-1.82,4.72-3.65,7.08-5.47c-4.08,3.11-8.31,5.97-12.72,8.59
			c-15.73,9.37-22.86,31.9-12.56,47.89c10.2,15.82,31.06,22.59,47.89,12.56c13.23-7.89,25.66-17.73,36.03-29.15
			c12.3-13.56,14.39-36.29,0-49.5C1057.52,1436.49,1034.57,1434.32,1021.43,1448.81L1021.43,1448.81z"/>
	</g>
</g>
<g>
	<g>
		<path d="M1096.78,962.93c91.18-69.79,178.07-144.92,259.43-225.96c73.69-73.4,145.79-153.64,186.94-250.44
			c12.96-30.48,23.15-61.68,30.08-94.09c7.19-33.62,11.53-67.9,14.37-102.15c0.71-8.5-4.41-18.91-10.25-24.75
			c-6.07-6.07-16.03-10.64-24.75-10.25c-9.05,0.41-18.44,3.38-24.75,10.25c-6.57,7.16-9.45,15.05-10.25,24.75
			c-1.19,14.34-2.68,28.65-4.57,42.92c0.42-3.1,0.83-6.2,1.25-9.3c-6.25,46.48-16.94,92.32-35.11,135.65
			c1.18-2.79,2.35-5.57,3.53-8.36c-19.2,45.31-45.55,87.08-75.53,125.98c1.82-2.36,3.65-4.72,5.47-7.08
			c-36.5,47.16-78.04,90.14-120.57,131.84c-45.92,45.01-93.53,88.28-142.69,129.72c-27.72,23.36-55.94,46.12-84.61,68.3
			c2.36-1.82,4.72-3.65,7.08-5.47c-3.46,2.68-6.93,5.34-10.41,8c-7.56,5.79-13.45,11.34-16.08,20.92
			c-2.31,8.38-1.27,19.53,3.53,26.97c4.82,7.47,11.99,14.05,20.92,16.08C1078.33,968.4,1089.5,968.51,1096.78,962.93L1096.78,962.93
			z"/>
	</g>
</g>
<line class="st1" x1="661.97" y1="1039.55" x2="661.97" y2="1364.55"/>
</svg>
