<?xml version="1.0" encoding="utf-8"?>
<!-- Generator: Adobe Illustrator 24.0.1, SVG Export Plug-In . SVG Version: 6.00 Build 0)  -->
<svg version="1.1" id="Layer_1" xmlns="http://www.w3.org/2000/svg" xmlns:xlink="http://www.w3.org/1999/xlink" x="0px" y="0px"
	 viewBox="0 0 1920 1920" style="enable-background:new 0 0 1920 1920;" xml:space="preserve">
<style type="text/css">
	.st0{stroke:#000000;stroke-miterlimit:10;}
	.st1{fill:none;stroke:#FFFFFF;stroke-width:70;stroke-miterlimit:10;}
	.st2{fill:#FFFFFF;}
</style>
<rect x="6.98" class="st0" width="1920" height="1920"/>
<circle class="st1" cx="737.32" cy="1113.03" r="523.86"/>
<line class="st1" x1="730.34" y1="1003.5" x2="730.34" y2="1212.53"/>
<g>
	<g>
		<path class="st2" d="M719.82,619.66c65.12-13.94,130.27-27.74,195.45-41.4s130.39-27.17,195.63-40.53
			c65.57-13.43,131.16-26.72,196.79-39.86c65.3-13.08,130.63-26.01,195.98-38.79c65.36-12.79,130.74-25.43,196.15-37.93
			c8.18-1.56,16.35-3.12,24.53-4.68c17.99-3.43,32.1-22.69,27.68-41.04c-4.47-18.51-21.76-31.35-41.04-27.68
			c-65.42,12.46-130.81,25.07-196.17,37.82c-65.36,12.75-130.7,25.65-196,38.69c-65.63,13.11-131.23,26.36-196.81,39.75
			c-65.25,13.33-130.46,26.81-195.65,40.42s-130.34,27.38-195.47,41.29c-8.14,1.74-16.28,3.48-24.42,5.22
			c-17.89,3.83-32.17,22.4-27.68,41.04C683.17,610.15,700.64,623.77,719.82,619.66L719.82,619.66z"/>
	</g>
</g>
<g>
	<g>
		<path class="st2" d="M1014.66,1598.86c109.58-10.73,218.71-36.92,318.63-83.84c50.14-23.54,98.08-52.78,141.45-87.29
			c40.23-32.01,77.02-70.21,104.66-113.71c29.98-47.19,47.45-99.31,51.78-155.04c2.17-28,2.09-56.16,5.37-84.07
			c0.83-7.08,1.97-14.1,3.24-21.12c1.05-5.83-0.47,2.02-0.56,2.62c0.25-1.74,0.81-3.49,1.23-5.19c0.95-3.8,2.01-7.58,3.19-11.32
			c2.01-6.36,4.39-12.6,7.08-18.7c1.22-2.78,3.07-5.6,3.96-8.49c-0.72,1.43-1.43,2.85-2.15,4.28c0.64-1.24,1.28-2.47,1.94-3.69
			c0.98-1.84,1.99-3.67,3.01-5.48c13.23-23.5,29.33-45.21,43.38-68.2c14.71-24.07,27.76-49.24,39.33-74.95
			c22.02-48.94,37.06-100.46,46.83-153.18c18.95-102.22,13.74-210.59-16.74-310.08c-4.43-14.45-9.3-28.77-14.57-42.93
			c-2.88-7.73-12.32-14.85-19.78-17.46c-8.2-2.88-19.41-2.59-27.15,1.68c-7.79,4.31-14.81,11.02-17.46,19.78
			c-2.89,9.53-1.78,17.85,1.68,27.15c2.26,6.07,4.43,12.18,6.51,18.32c-1-2.96-2-5.93-3-8.89c17.51,52.24,27.77,106.65,31.03,161.63
			c-0.18-3.12-0.37-6.25-0.55-9.37c2.11,37.53,1.01,75.2-3.38,112.53c-2.16,18.35-5.2,36.56-8.82,54.67
			c-0.87,4.34,1.62-7.49,0.67-3.18c-0.21,0.95-0.41,1.9-0.62,2.85c-0.49,2.21-0.99,4.43-1.5,6.63c-1.09,4.73-2.24,9.45-3.44,14.16
			c-2.32,9.1-4.84,18.15-7.56,27.13c-5.35,17.66-11.46,35.08-18.34,52.2c-3.5,8.71-7.19,17.34-11.09,25.88
			c-1.88,4.12-3.8,8.22-5.77,12.3c-0.98,2.04-1.99,4.07-2.99,6.1c-0.95,1.93-3.1,5.66,1.4-2.79c-0.61,1.14-1.18,2.31-1.77,3.46
			c-8.65,16.73-18.08,33.05-28.27,48.89c-10.77,16.76-22.27,33.06-32.42,50.21c-11.45,19.35-21.71,39.83-27.65,61.59
			c-6.07,22.24-9.2,45.1-10.74,68.06c-1.37,20.52-1.77,41.09-3.36,61.59c-0.81,10.39-1.93,20.77-3.64,31.05
			c-0.38,2.29-0.81,4.56-1.23,6.84c-1.09,5.88,1.8-7.99,0.14-0.7c-1.03,4.51-2.18,8.99-3.44,13.44c-2.43,8.57-5.3,17.02-8.56,25.31
			c-1.57,4-3.23,7.96-4.98,11.89c-0.87,1.96-1.77,3.92-2.68,5.86c-1.14,2.41-5.23,10.09-0.03,0.28
			c-8.27,15.61-17.24,30.66-27.59,44.99c-5.29,7.32-10.84,14.46-16.62,21.4c-1.4,1.68-2.81,3.35-4.24,5.01
			c-5.3,6.17,4.3-4.72,0.34-0.37c-3.17,3.48-6.33,6.95-9.57,10.35c-12.56,13.17-25.91,25.58-39.84,37.28
			c-14.15,11.88-28.93,23-44.12,33.5c-0.98,0.68-8.09,5.49-2.98,2.07c5.14-3.45-1.85,1.22-3.03,1.99
			c-4.26,2.79-8.56,5.54-12.88,8.23c-8.36,5.21-16.83,10.23-25.4,15.08c-34.02,19.24-69.63,35.62-106.2,49.4
			c-9.25,3.48-18.56,6.79-27.93,9.96c2.96-1,5.93-2,8.89-3c-72.67,24.4-148.24,39.23-224.48,46.7c-8.43,0.83-17.77,8.02-22.34,14.79
			c-4.8,7.12-7.39,17.77-5.34,26.25c2.13,8.81,6.84,17.46,14.79,22.34C996.73,1598.63,1004.94,1599.81,1014.66,1598.86
			L1014.66,1598.86z"/>
	</g>
</g>
<g>
	<g>
		<path class="st2" d="M1043.89,707.25c12.88,0,12.9-20.02,0-20.02C1031.01,687.23,1030.99,707.25,1043.89,707.25L1043.89,707.25z"
			/>
	</g>
</g>
<g>
	<g>
		<path class="st2" d="M1043.9,705.19c10.22,0,10.24-15.89,0-15.89C1033.67,689.3,1033.65,705.19,1043.9,705.19L1043.9,705.19z"/>
	</g>
</g>
</svg>
