<?xml version="1.0" encoding="utf-8"?>
<!-- Generator: Adobe Illustrator 24.0.1, SVG Export Plug-In . SVG Version: 6.00 Build 0)  -->
<svg version="1.1" id="Layer_1" xmlns="http://www.w3.org/2000/svg" xmlns:xlink="http://www.w3.org/1999/xlink" x="0px" y="0px"
	 viewBox="0 0 1920 1920" style="enable-background:new 0 0 1920 1920;" xml:space="preserve">
<style type="text/css">
	.st0{fill:none;stroke:#000000;stroke-width:30;stroke-miterlimit:10;}
</style>
<circle class="st0" cx="750.43" cy="1080.73" r="456.25"/>
<line class="st0" x1="750.43" y1="970.04" x2="750.43" y2="1191.41"/>
<g>
	<g>
		<path d="M1097.76,1535.9c1.93,0,1.93-3,0-3C1095.83,1532.9,1095.82,1535.9,1097.76,1535.9L1097.76,1535.9z"/>
	</g>
</g>
<g>
	<g>
		<path d="M662.26,646.61c59.68-26.43,119.57-52.39,179.67-77.85c59.77-25.32,119.76-50.12,179.93-74.45
			c60.44-24.43,121.09-48.38,181.92-71.82c60.8-23.43,121.79-46.37,182.97-68.8c61.45-22.53,123.08-44.56,184.89-66.08
			c7.65-2.66,15.3-5.32,22.95-7.96c7.65-2.65,12.72-10.28,10.48-18.45c-2.04-7.44-10.76-13.14-18.45-10.48
			c-61.85,21.4-123.52,43.3-185.01,65.7c-61.52,22.42-122.86,45.34-184.01,68.77c-61.18,23.44-122.17,47.38-182.95,71.82
			c-61.12,24.58-122.04,49.65-182.75,75.23c-61.04,25.72-121.89,51.91-182.5,78.61c-7.43,3.27-14.86,6.56-22.28,9.84
			c-7.41,3.28-9.14,14.09-5.38,20.52C646.2,648.86,654.82,649.9,662.26,646.61L662.26,646.61z"/>
	</g>
</g>
<g>
	<g>
		<path d="M1087.31,1413.34c85.06-68.6,170.15-137.16,255.17-205.81c33.36-26.93,66.34-55.57,90.31-91.52
			c11.49-17.23,20.69-36.62,25.13-56.92c5.33-24.41,2.4-47.62-0.76-72.08c-1.51-11.71-2.94-24.08-0.99-35.82
			c1.81-10.92,6.04-20.27,11.62-29.64c12.13-20.37,28.23-38.09,41.8-57.5c26.92-38.51,51.77-85.05,48.3-133.56
			c-0.88-12.29-3.43-24.15-7.57-35.74c-2.01-5.63-4.19-11.24-5.57-17.07c-1.03-4.37-1.47-8.58,0.4-12.63
			c3.16-6.84,13.01-13.99,18.9-20.2c7.14-7.53,13.76-15.5,20.09-23.72c24.08-31.3,41.7-67.43,52.54-105.37
			c21.89-76.61,16.22-161.19-19.02-232.94c-4.25-8.66-8.97-17.06-14.09-25.24c-4.3-6.86-13.38-9.56-20.52-5.38
			c-6.84,4-9.7,13.63-5.38,20.52c20.26,32.34,32.5,66.17,38.62,104.59c0.21,1.32,0.4,2.64,0.6,3.96c0.04,0.27,0.41,2.92,0.12,0.78
			c0.28,2.12,0.53,4.24,0.76,6.37c0.55,5.05,0.98,10.12,1.29,15.19c0.57,9.36,0.72,18.74,0.47,28.11
			c-0.56,20.25-2.4,35.76-6.52,55.01c-8.05,37.67-21.35,70.33-42.63,102.35c-10.43,15.69-21.29,28.76-35.46,42.55
			c-8.98,8.75-17.83,18.13-20.13,30.95c-2.31,12.91,1.25,25.24,5.59,37.3c7.48,20.78,9.89,40.81,5.38,62.06
			c-4.8,22.61-14.74,43.48-26.58,63.2c-12.18,20.28-26.57,38.93-40.92,57.68c-13.94,18.22-27.35,38.33-31.2,61.4
			c-4.39,26.27,2.85,51.49,4.13,77.62c0.24,4.97,0.22,9.95-0.11,14.92c-0.12,1.85-0.49,5.59-0.6,6.42c-0.14,1.01-0.87,5.02-1.3,7.08
			c-0.98,4.61-2.2,9.17-3.66,13.65c-0.77,2.37-1.61,4.72-2.51,7.05c-0.91,2.35-1.05,2.72-2.39,5.62
			c-17.34,37.46-47.55,66.23-79,92.93c-38.84,32.98-79.21,64.26-118.87,96.25c-41.94,33.83-83.88,67.66-125.83,101.49
			c-10.27,8.28-20.53,16.56-30.8,24.84c-6.31,5.09-5.3,15.91,0,21.21C1072.34,1419.58,1080.99,1418.45,1087.31,1413.34
			L1087.31,1413.34z"/>
	</g>
</g>
<g>
	<g>
		<path d="M1220.17,1112.7c69.48-33.91,133.7-78.66,189.79-131.87c15.65-14.85,30.62-30.39,44.93-46.53
			c5.37-6.06,5.97-15.24,0-21.21c-5.47-5.47-15.82-6.09-21.21,0c-50.24,56.67-107.24,104.16-171.79,142.88
			c-18.5,11.1-37.48,21.36-56.86,30.83c-7.28,3.55-9.25,13.9-5.38,20.52C1203.99,1114.75,1212.86,1116.27,1220.17,1112.7
			L1220.17,1112.7z"/>
	</g>
</g>
<g>
	<g>
		<path d="M1180.21,906.54c50.76-18.03,93.73-51.45,137.23-82.26c46.61-33.02,93.21-66.04,139.82-99.05
			c26.55-18.81,53.11-37.62,79.66-56.44c6.6-4.68,9.72-13.1,5.38-20.52c-3.82-6.53-13.88-10.09-20.52-5.38
			c-46.61,33.02-93.21,66.04-139.82,99.05c-45.21,32.03-89.92,64.92-135.85,95.91c-11.81,7.97-23.85,15.63-36.33,22.53
			c-12.61,6.98-24.53,12.61-37.54,17.23c-7.63,2.71-12.73,10.23-10.48,18.45C1163.78,903.45,1172.54,909.27,1180.21,906.54
			L1180.21,906.54z"/>
	</g>
</g>
</svg>
